<svg width="3272" height="544" viewBox="0 0 3272 544" fill="none" xmlns="http://www.w3.org/2000/svg">
<path d="M359 297.024H386.258C388.375 325.816 410.791 344.304 442.284 344.304C470.753 344.304 489.834 330.666 489.834 308.238C489.834 285.81 472.871 277.627 432.896 270.959C388.984 263.685 364.149 247.319 364.149 212.768C364.149 178.217 393.225 152.455 435.926 152.455C481.048 152.455 511.033 177.914 513.454 217.011H486.196C483.47 192.159 463.482 176.398 435.926 176.398C408.363 176.398 390.499 189.128 390.499 211.252C390.499 233.377 407.152 240.651 447.736 247.319C491.045 254.29 516.18 271.869 516.18 305.813C516.18 342.486 485.593 368.248 441.98 368.248C392.312 368.248 360.514 340.061 359 297.024Z" fill="#363642"/>
<path d="M652.668 211.871H677.505V366.442H656.002L652.668 345.833C643.584 357.35 628.744 368.26 604.217 368.26C571.507 368.26 544.552 350.075 544.552 300.977V211.871H569.383V299.461C569.383 329.466 583.925 345.529 608.452 345.529C635.71 345.529 652.668 325.223 652.668 292.187V211.871Z" fill="#363642"/>
<path d="M858.914 289.144C858.914 336.424 827.414 368.248 784.713 368.248C758.666 368.248 741.1 357.64 731.711 342.789V427.045H706.88V211.859H728.383L731.711 236.711C742.012 222.467 758.666 210.04 784.713 210.04C827.414 210.04 858.914 238.833 858.914 289.144ZM833.474 289.144C833.474 255.502 812.878 232.165 782.292 232.165C751.699 232.165 731.413 255.502 731.413 288.538C731.413 321.574 752.003 346.123 782.292 346.123C812.574 346.123 833.474 322.786 833.474 289.144Z" fill="#363642"/>
<path d="M909.82 294.599V296.115C910.733 325.514 929.205 346.123 958.581 346.123C980.388 346.123 997.346 334.606 1002.49 314.603H1027.63C1021.57 345.517 996.135 368.248 960.4 368.248C914.061 368.248 883.778 336.424 883.778 289.144C883.778 241.863 913.459 210.04 957.066 210.04C1000.68 210.04 1029.15 237.62 1030.36 283.385C1030.36 285.81 1030.06 290.963 1029.75 294.599H909.82ZM911.335 273.384H1003.71C1001.28 246.713 983.114 231.862 957.37 231.862C934.657 231.862 913.763 248.228 911.335 273.384Z" fill="#363642"/>
<path d="M1180.04 211.871V236.118H1160.05C1124.01 236.118 1113.41 263.698 1113.41 288.247V343.711H1158.54V366.442H1054.05V343.711H1088.58V234.602H1054.05V211.871H1112.2L1113.11 237.936C1120.08 225.813 1134 211.871 1163.38 211.871H1180.04Z" fill="#363642"/>
<path d="M1321.4 343.698V366.429H1202.98V343.698H1249.62V177.004H1202.98V154.273H1274.46V343.698H1321.4Z" fill="#363642"/>
<path d="M1467.44 343.699V366.43H1349.03V343.699H1395.67V234.59H1349.03V211.859H1420.5V343.699H1467.44ZM1389.31 165.791C1389.31 155.183 1397.79 147 1408.39 147C1418.99 147 1427.16 155.183 1427.16 165.791C1427.16 177.005 1418.99 184.885 1408.39 184.885C1397.79 184.885 1389.31 177.005 1389.31 165.791Z" fill="#363642"/>
<path d="M1630.89 277.324V366.429H1606.05V278.839C1606.05 248.834 1591.51 232.771 1566.07 232.771C1538.81 232.771 1521.25 253.077 1521.25 286.113V366.429H1496.42V211.859H1517.92L1521.25 232.771C1530.34 220.951 1545.78 210.04 1570.31 210.04C1603.63 210.04 1630.89 228.225 1630.89 277.324Z" fill="#363642"/>
<path d="M1663.18 366.429V154.273H1688.02V293.993L1770.4 211.859H1801.89L1736.78 276.718L1804.92 366.429H1774.34L1719.52 293.69L1688.02 325.21V366.429H1663.18Z" fill="#363642"/>
<path d="M1838.81 294.599V296.115C1839.71 325.514 1858.19 346.123 1887.56 346.123C1909.37 346.123 1926.33 334.606 1931.48 314.603H1956.62C1950.56 345.517 1925.12 368.248 1889.38 368.248C1843.05 368.248 1812.76 336.424 1812.76 289.144C1812.76 241.863 1842.44 210.04 1886.05 210.04C1929.66 210.04 1958.13 237.62 1959.34 283.385C1959.34 285.81 1959.04 290.963 1958.73 294.599H1838.81ZM1840.32 273.384H1932.69C1930.27 246.713 1912.1 231.862 1886.35 231.862C1863.64 231.862 1842.74 248.228 1840.32 273.384Z" fill="#363642"/>
<path d="M2112.52 154.273H2137.35V366.429H2115.85L2112.52 341.576C2102.22 355.821 2085.57 368.247 2059.52 368.247C2016.82 368.247 1985.32 339.455 1985.32 289.144C1985.32 241.864 2016.82 210.04 2059.52 210.04C2085.57 210.04 2103.13 220.648 2112.52 235.499V154.273ZM2112.82 289.75C2112.82 255.805 2092.23 232.165 2061.94 232.165C2031.66 232.165 2010.76 255.502 2010.76 289.144C2010.76 322.786 2031.35 346.123 2061.94 346.123C2092.53 346.123 2112.82 322.786 2112.82 289.75Z" fill="#363642"/>
<path d="M137.5 367L0 229.5L137.5 92L275 229.5L222.171 282.329L137.5 197.659L105.659 229.5L190.329 314.17L137.5 367ZM20.9884 229.5L137.5 346.011L169.341 314.17L84.6704 229.5L137.5 176.67L222.171 261.341L254.011 229.5L137.5 112.988L20.9884 229.5Z" fill="#FE552E"/>
<path d="M137.5 452L0 314.5L52.8294 261.671L137.5 346.341L169.341 314.5L84.6704 229.83L137.5 177L275 314.5L137.5 452ZM20.9884 314.5L137.5 431.011L254.011 314.5L137.5 197.989L105.659 229.83L190.329 314.5L137.5 367.33L52.8294 282.659L20.9884 314.5Z" fill="#FE552E"/>
<path d="M2906.02 115H2336.7C2319.74 115 2306 128.744 2306 145.697V398.698C2306 415.651 2319.74 429.395 2336.7 429.395H2906.02C2922.98 429.395 2936.72 415.651 2936.72 398.698V145.697C2936.72 128.744 2922.98 115 2906.02 115Z" fill="#363642"/>
<path d="M2399.29 338.697V202.605H2431.96C2453.86 202.605 2470.13 208.697 2480.75 220.881C2491.38 232.934 2496.7 249.525 2496.7 270.651C2496.7 291.778 2491.38 308.433 2480.75 320.616C2470.13 332.67 2453.86 338.697 2431.96 338.697H2399.29ZM2419.9 319.644H2431.18C2446.99 319.644 2458.4 315.238 2465.39 306.424C2472.39 297.481 2475.89 285.557 2475.89 270.651C2475.89 255.746 2472.39 243.887 2465.39 235.073C2458.4 226.13 2446.99 221.658 2431.18 221.658H2419.9V319.644ZM2563.11 341.03C2553.91 341.03 2545.68 338.956 2538.42 334.809C2531.16 330.661 2525.46 324.829 2521.31 317.311C2517.16 309.664 2515.09 300.721 2515.09 290.482C2515.09 280.243 2517.16 271.364 2521.31 263.847C2525.46 256.2 2531.16 250.302 2538.42 246.155C2545.68 242.007 2553.97 239.933 2563.31 239.933C2572.64 239.933 2580.87 242.007 2588 246.155C2595.25 250.302 2600.89 256.2 2604.91 263.847C2609.06 271.364 2611.13 280.243 2611.13 290.482C2611.13 300.721 2609.06 309.664 2604.91 317.311C2600.76 324.829 2595.06 330.661 2587.8 334.809C2580.67 338.956 2572.44 341.03 2563.11 341.03ZM2563.11 321.394C2568.04 321.394 2572.57 320.292 2576.72 318.089C2580.87 315.886 2584.17 312.516 2586.64 307.979C2589.23 303.313 2590.52 297.481 2590.52 290.482C2590.52 283.353 2589.23 277.521 2586.64 272.984C2584.17 268.448 2580.87 265.078 2576.72 262.875C2572.7 260.671 2568.23 259.57 2563.31 259.57C2558.38 259.57 2553.84 260.671 2549.7 262.875C2545.55 265.078 2542.18 268.448 2539.59 272.984C2537.12 277.521 2535.89 283.353 2535.89 290.482C2535.89 301.11 2538.55 308.951 2543.86 314.006C2549.31 318.932 2555.72 321.394 2563.11 321.394ZM2681.05 341.03C2672.1 341.03 2664.07 338.956 2656.94 334.809C2649.94 330.661 2644.43 324.829 2640.41 317.311C2636.39 309.664 2634.39 300.721 2634.39 290.482C2634.39 280.243 2636.39 271.364 2640.41 263.847C2644.56 256.329 2650.13 250.497 2657.13 246.349C2664.13 242.072 2672.1 239.933 2681.05 239.933C2693.36 239.933 2703.27 243.044 2710.79 249.265C2718.44 255.357 2723.3 263.782 2725.37 274.54H2703.79C2702.5 269.874 2699.84 266.18 2695.82 263.458C2691.93 260.736 2686.94 259.375 2680.85 259.375C2676.44 259.375 2672.23 260.542 2668.21 262.875C2664.33 265.208 2661.15 268.707 2658.69 273.373C2656.35 277.91 2655.19 283.612 2655.19 290.482C2655.19 297.222 2656.35 302.925 2658.69 307.591C2661.15 312.257 2664.33 315.821 2668.21 318.283C2672.23 320.616 2676.44 321.783 2680.85 321.783C2687.07 321.783 2692.06 320.422 2695.82 317.7C2699.58 314.978 2702.24 311.22 2703.79 306.424H2725.37C2722.78 317.052 2717.73 325.477 2710.21 331.698C2702.69 337.92 2692.97 341.03 2681.05 341.03ZM2797.04 341.03C2784.33 341.03 2774.23 338.049 2766.71 332.087C2759.19 326.125 2754.91 318.219 2753.88 308.368H2775.07C2775.85 312.905 2778.11 316.599 2781.87 319.45C2785.76 322.301 2790.88 323.727 2797.23 323.727C2803.32 323.727 2807.99 322.496 2811.23 320.033C2814.6 317.441 2816.28 314.46 2816.28 311.09C2816.28 306.165 2814.28 302.795 2810.26 300.98C2806.37 299.166 2800.6 297.805 2792.95 296.898C2786.34 296.12 2780.32 294.629 2774.87 292.426C2769.56 290.093 2765.35 286.982 2762.24 283.094C2759.13 279.076 2757.57 274.086 2757.57 268.124C2757.57 259.699 2760.88 252.895 2767.49 247.71C2774.1 242.526 2783.3 239.933 2795.09 239.933C2806.89 239.933 2816.02 242.591 2822.51 247.905C2828.99 253.219 2832.74 260.477 2833.78 269.679H2813.95C2813.43 265.791 2811.42 262.745 2807.92 260.542C2804.42 258.209 2800.08 257.042 2794.9 257.042C2789.58 257.042 2785.37 258.079 2782.26 260.153C2779.15 262.097 2777.6 264.689 2777.6 267.93C2777.6 274.929 2785.11 279.206 2800.15 280.761C2807.28 281.539 2813.63 282.9 2819.2 284.844C2824.77 286.658 2829.18 289.575 2832.42 293.593C2835.66 297.481 2837.28 302.989 2837.28 310.118C2837.41 315.95 2835.73 321.2 2832.23 325.866C2828.86 330.532 2824.13 334.226 2818.03 336.948C2812.07 339.669 2805.07 341.03 2797.04 341.03Z" fill="white"/>
</svg>
