<svg width="533" height="77" viewBox="0 0 533 77" fill="none" xmlns="http://www.w3.org/2000/svg">
<g clip-path="url(#clip0_1_10)">
<path d="M84.4512 46.1985H89.3672C89.7495 51.3766 93.7915 54.7015 99.4722 54.7015C104.607 54.7015 108.048 52.2487 108.048 48.2152C108.048 44.1817 104.989 42.71 97.779 41.5109C89.8588 40.2027 85.3797 37.2594 85.3797 31.0456C85.3797 24.8318 90.6235 20.1987 98.3252 20.1987C106.464 20.1987 111.871 24.7773 112.308 31.8087H107.392C106.901 27.3391 103.296 24.5048 98.3252 24.5048C93.3546 24.5048 90.1319 26.7941 90.1319 30.7731C90.1319 34.752 93.1361 36.0602 100.455 37.2594C108.266 38.513 112.8 41.6744 112.8 47.7792C112.8 54.3745 107.283 59.0076 99.4176 59.0076C90.4596 59.0076 84.7243 53.9384 84.4512 46.1985Z" fill="#363642"/>
<path d="M137.417 30.885H141.896V58.6835H138.018L137.417 54.9771C135.778 57.0483 133.102 59.0106 128.677 59.0106C122.778 59.0106 117.917 55.7402 117.917 46.9101V30.885H122.396V46.6375C122.396 52.0337 125.017 54.9226 129.442 54.9226C134.358 54.9226 137.417 51.2706 137.417 45.3294V30.885Z" fill="#363642"/>
<path d="M174.613 44.7827C174.613 53.2858 168.932 59.009 161.231 59.009C156.533 59.009 153.365 57.1012 151.672 54.4304V69.5833H147.193V30.8834H151.071L151.672 35.353C153.529 32.7912 156.533 30.5564 161.231 30.5564C168.932 30.5564 174.613 35.7345 174.613 44.7827ZM170.025 44.7827C170.025 38.7324 166.31 34.5354 160.794 34.5354C155.277 34.5354 151.617 38.7324 151.617 44.6737C151.617 50.6149 155.331 55.03 160.794 55.03C166.256 55.03 170.025 50.8329 170.025 44.7827Z" fill="#363642"/>
<path d="M183.796 45.7638V46.0363C183.96 51.3235 187.292 55.0299 192.59 55.0299C196.523 55.0299 199.582 52.9587 200.51 49.3612H205.044C203.952 54.9209 199.363 59.0089 192.918 59.0089C184.561 59.0089 179.099 53.2857 179.099 44.7827C179.099 36.2796 184.451 30.5564 192.317 30.5564C200.183 30.5564 205.317 35.5165 205.536 43.747C205.536 44.1831 205.481 45.1097 205.426 45.7638H183.796ZM184.069 41.9483H200.729C200.292 37.1517 197.015 34.4809 192.372 34.4809C188.275 34.4809 184.506 37.4243 184.069 41.9483Z" fill="#363642"/>
<path d="M232.531 30.886V35.2465H228.926C222.426 35.2465 220.514 40.2066 220.514 44.6217V54.5964H228.653V58.6844H209.809V54.5964H216.035V34.974H209.809V30.886H220.296L220.46 35.5735C221.716 33.3933 224.229 30.886 229.527 30.886H232.531Z" fill="#363642"/>
<path d="M258.027 54.5938V58.6818H236.669V54.5938H245.081V24.6151H236.669V20.5271H249.56V54.5938H258.027Z" fill="#363642"/>
<path d="M284.369 54.5939V58.6819H263.012V54.5939H271.424V34.9715H263.012V30.8835H275.903V54.5939H284.369ZM270.277 22.5984C270.277 20.6907 271.806 19.219 273.718 19.219C275.629 19.219 277.104 20.6907 277.104 22.5984C277.104 24.6152 275.629 26.0323 273.718 26.0323C271.806 26.0323 270.277 24.6152 270.277 22.5984Z" fill="#363642"/>
<path d="M313.845 42.6569V58.6819H309.366V42.9295C309.366 37.5333 306.744 34.6444 302.156 34.6444C297.24 34.6444 294.072 38.2964 294.072 44.2376V58.6819H289.593V30.8834H293.471L294.072 34.6444C295.71 32.5186 298.496 30.5564 302.921 30.5564C308.929 30.5564 313.845 33.8268 313.845 42.6569Z" fill="#363642"/>
<path d="M319.671 58.6818V20.5271H324.15V45.6547L339.007 30.8834H344.688L332.944 42.5478L345.234 58.6818H339.717L329.83 45.6002L324.15 51.2689V58.6818H319.671Z" fill="#363642"/>
<path d="M351.347 45.7636V46.0362C351.511 51.3233 354.843 55.0298 360.141 55.0298C364.074 55.0298 367.133 52.9585 368.061 49.3611H372.595C371.503 54.9208 366.914 59.0088 360.469 59.0088C352.112 59.0088 346.65 53.2856 346.65 44.7825C346.65 36.2795 352.003 30.5562 359.868 30.5562C367.734 30.5562 372.868 35.5164 373.087 43.7469C373.087 44.1829 373.032 45.1096 372.977 45.7636H351.347ZM351.62 41.9482H368.28C367.843 37.1516 364.566 34.4807 359.923 34.4807C355.826 34.4807 352.057 37.4241 351.62 41.9482Z" fill="#363642"/>
<path d="M400.712 20.5269H405.191V58.6817H401.313L400.712 54.2121C398.855 56.7739 395.851 59.0087 391.154 59.0087C383.452 59.0087 377.771 53.8306 377.771 44.7824C377.771 36.2794 383.452 30.5562 391.154 30.5562C395.851 30.5562 399.019 32.4639 400.712 35.1347V20.5269ZM400.767 44.8915C400.767 38.7867 397.053 34.5352 391.591 34.5352C386.128 34.5352 382.359 38.7322 382.359 44.7824C382.359 50.8327 386.074 55.0297 391.591 55.0297C397.107 55.0297 400.767 50.8327 400.767 44.8915Z" fill="#363642"/>
<path d="M29.4102 58.6621L0 29.3311L29.4102 0L58.8204 29.3311L47.5206 40.6005L29.4102 22.5388L22.5996 29.3311L40.71 47.3927L29.4102 58.6621ZM4.48926 29.3311L29.4102 54.185L36.2208 47.3927L18.1104 29.3311L29.4102 18.0617L47.5206 36.1233L54.3311 29.3311L29.4102 4.47718L4.48926 29.3311Z" fill="#363642"/>
<path d="M10.1788 39.4825L0 29.3311L29.4102 0L58.8204 29.3311L48.6416 39.4825L46.3996 37.2413L54.3311 29.3311L29.4102 4.47718L4.48926 29.3311L12.4208 37.2413L10.1788 39.4825Z" fill="#FE552E"/>
<path d="M29.4107 76.7244L0.000488281 47.3933L11.3003 36.1239L29.4107 54.1855L36.2213 47.3933L18.1109 29.3316L29.4107 18.0622L58.8209 47.3933L29.4107 76.7244ZM4.48975 47.3933L29.4107 72.2472L54.3316 47.3933L29.4107 22.5394L22.6001 29.3316L40.7105 47.3933L29.4107 58.6627L11.3003 40.6011L4.48975 47.3933Z" fill="#FE552E"/>
<rect x="431.191" y="12" width="102" height="55" rx="8" fill="#363642"/>
<path d="M448.844 49V28.7H453.716C456.983 28.7 459.409 29.6087 460.995 31.426C462.58 33.224 463.373 35.6987 463.373 38.85C463.373 42.0013 462.58 44.4857 460.995 46.303C459.409 48.101 456.983 49 453.716 49H448.844ZM451.918 46.158H453.6C455.958 46.158 457.66 45.5007 458.704 44.186C459.748 42.852 460.27 41.0733 460.27 38.85C460.27 36.6267 459.748 34.8577 458.704 33.543C457.66 32.209 455.958 31.542 453.6 31.542H451.918V46.158ZM473.279 49.348C471.907 49.348 470.679 49.0387 469.596 48.42C468.514 47.8013 467.663 46.9313 467.044 45.81C466.426 44.6693 466.116 43.3353 466.116 41.808C466.116 40.2807 466.426 38.9563 467.044 37.835C467.663 36.6943 468.514 35.8147 469.596 35.196C470.679 34.5773 471.916 34.268 473.308 34.268C474.7 34.268 475.928 34.5773 476.991 35.196C478.074 35.8147 478.915 36.6943 479.514 37.835C480.133 38.9563 480.442 40.2807 480.442 41.808C480.442 43.3353 480.133 44.6693 479.514 45.81C478.896 46.9313 478.045 47.8013 476.962 48.42C475.899 49.0387 474.671 49.348 473.279 49.348ZM473.279 46.419C474.014 46.419 474.691 46.2547 475.309 45.926C475.928 45.5973 476.421 45.0947 476.788 44.418C477.175 43.722 477.368 42.852 477.368 41.808C477.368 40.7447 477.175 39.8747 476.788 39.198C476.421 38.5213 475.928 38.0187 475.309 37.69C474.71 37.3613 474.043 37.197 473.308 37.197C472.574 37.197 471.897 37.3613 471.278 37.69C470.66 38.0187 470.157 38.5213 469.77 39.198C469.403 39.8747 469.219 40.7447 469.219 41.808C469.219 43.3933 469.616 44.563 470.408 45.317C471.22 46.0517 472.177 46.419 473.279 46.419ZM490.871 49.348C489.537 49.348 488.338 49.0387 487.275 48.42C486.231 47.8013 485.409 46.9313 484.81 45.81C484.211 44.6693 483.911 43.3353 483.911 41.808C483.911 40.2807 484.211 38.9563 484.81 37.835C485.429 36.7137 486.26 35.8437 487.304 35.225C488.348 34.587 489.537 34.268 490.871 34.268C492.708 34.268 494.187 34.732 495.308 35.66C496.449 36.5687 497.174 37.8253 497.483 39.43H494.264C494.071 38.734 493.674 38.183 493.075 37.777C492.495 37.371 491.751 37.168 490.842 37.168C490.185 37.168 489.556 37.342 488.957 37.69C488.377 38.038 487.903 38.56 487.536 39.256C487.188 39.9327 487.014 40.7833 487.014 41.808C487.014 42.8133 487.188 43.664 487.536 44.36C487.903 45.056 488.377 45.5877 488.957 45.955C489.556 46.303 490.185 46.477 490.842 46.477C491.77 46.477 492.514 46.274 493.075 45.868C493.636 45.462 494.032 44.9013 494.264 44.186H497.483C497.096 45.7713 496.342 47.028 495.221 47.956C494.1 48.884 492.65 49.348 490.871 49.348ZM508.173 49.348C506.278 49.348 504.77 48.9033 503.649 48.014C502.527 47.1247 501.889 45.9453 501.735 44.476H504.896C505.012 45.1527 505.35 45.7037 505.911 46.129C506.491 46.5543 507.254 46.767 508.202 46.767C509.11 46.767 509.806 46.5833 510.29 46.216C510.792 45.8293 511.044 45.3847 511.044 44.882C511.044 44.1473 510.744 43.6447 510.145 43.374C509.565 43.1033 508.704 42.9003 507.564 42.765C506.578 42.649 505.679 42.4267 504.867 42.098C504.074 41.75 503.446 41.286 502.982 40.706C502.518 40.1067 502.286 39.3623 502.286 38.473C502.286 37.2163 502.779 36.2013 503.765 35.428C504.751 34.6547 506.123 34.268 507.883 34.268C509.642 34.268 511.005 34.6643 511.972 35.457C512.938 36.2497 513.499 37.3323 513.654 38.705H510.696C510.618 38.125 510.319 37.6707 509.797 37.342C509.275 36.994 508.627 36.82 507.854 36.82C507.061 36.82 506.433 36.9747 505.969 37.284C505.505 37.574 505.273 37.9607 505.273 38.444C505.273 39.488 506.394 40.126 508.637 40.358C509.7 40.474 510.647 40.677 511.479 40.967C512.31 41.2377 512.967 41.6727 513.451 42.272C513.934 42.852 514.176 43.6737 514.176 44.737C514.195 45.607 513.944 46.39 513.422 47.086C512.919 47.782 512.213 48.333 511.305 48.739C510.415 49.145 509.371 49.348 508.173 49.348Z" fill="white"/>
</g>
<defs>
<clipPath id="clip0_1_10">
<rect width="533" height="77" fill="white"/>
</clipPath>
</defs>
</svg>
